<svg xmlns="http://www.w3.org/2000/svg" xmlns:xlink="http://www.w3.org/1999/xlink" width="323.237" height="332.988" viewBox="0 0 323.237 332.988"><defs><linearGradient id="a" x1="0.395" y1="0.154" x2="0.5" y2="1" gradientUnits="objectBoundingBox"><stop offset="0" stop-color="#f8f6ba"/><stop offset="1" stop-color="#dd72fd"/></linearGradient></defs><path d="M85.223,260.724a8.014,8.014,0,0,1-7.83-6.469c-14.98-77.282,3.4-144.01,50.046-183.161,25.534-21.448,55.493-26.215,78.644-27.917a7.1,7.1,0,0,1,6.128,2.383l24.853,24.853c2.043-8.852,4.426-19.406,5.447-25.534a8.591,8.591,0,0,1,5.788-6.469c21.108-5.788,37.316-11.055,59.238-36.088A7.684,7.684,0,0,1,315.026.28a8.429,8.429,0,0,1,5.788,5.447c28.6,96.687-35.066,169.884-55.493,190.311h0c-30.64,30.64-87.5,51.408-178.735,65.026ZM203.7,59.178c-21.448,2.043-45.28,6.809-66.047,24.172-40.513,34.045-57.2,92.262-45.961,160.351,82.389-12.937,135.5-32.343,162.394-59.238h0c17.7-17.7,71.494-79.665,54.472-161.713A143.226,143.226,0,0,1,257.15,52.029c-2.724,13.277-7.49,34.385-7.83,35.407a7.833,7.833,0,0,1-5.447,5.788,8.3,8.3,0,0,1-7.83-2.043ZM19.176,325.409c-2.043,0-11.935,9.094-13.637,7.392-3.064-3.064,4.786-17.946,7.85-21.01l174.65-174.65c3.064-3.064,21.108-17.336,24.172-14.272s-9.873,22.443-12.937,25.507L24.623,323.026A8.034,8.034,0,0,1,19.176,325.409Z" transform="translate(-4.842 -0.025)" fill="url(#a)"/></svg>